<svg xmlns="http://www.w3.org/2000/svg" xmlns:xlink="http://www.w3.org/1999/xlink" width="500" zoomAndPan="magnify" viewBox="0 0 375 374.999991" height="500" preserveAspectRatio="xMidYMid meet" version="1.0"><defs><g/><clipPath id="1594ab0990"><path d="M 145.160156 145.941406 L 216.378906 145.941406 L 216.378906 217.15625 L 145.160156 217.15625 Z M 145.160156 145.941406 " clip-rule="nonzero"/></clipPath><clipPath id="942759ce57"><path d="M 158.855469 161.082031 L 229.835938 161.082031 L 229.835938 228.984375 L 158.855469 228.984375 Z M 158.855469 161.082031 " clip-rule="nonzero"/></clipPath></defs><g clip-path="url(#1594ab0990)"><path fill="#ff9f43" d="M 214.226562 180.027344 L 182.21875 148.019531 C 180.921875 146.742188 179.140625 145.941406 177.183594 145.941406 L 152.277344 145.941406 C 148.347656 145.941406 145.160156 149.125 145.160156 153.054688 L 145.160156 177.964844 C 145.160156 179.9375 145.960938 181.71875 147.261719 183 L 179.285156 215.023438 C 180.566406 216.304688 182.34375 217.105469 184.300781 217.105469 C 186.257812 217.105469 188.054688 216.304688 189.335938 215.023438 L 214.246094 190.113281 C 215.523438 188.816406 216.324219 187.039062 216.324219 185.082031 C 216.324219 183.105469 215.523438 181.328125 214.226562 180.027344 Z M 157.613281 163.730469 C 154.660156 163.730469 152.277344 161.347656 152.277344 158.394531 C 152.277344 155.441406 154.660156 153.054688 157.613281 153.054688 C 160.570312 153.054688 162.953125 155.441406 162.953125 158.394531 C 162.953125 161.347656 160.570312 163.730469 157.613281 163.730469 Z M 157.613281 163.730469 " fill-opacity="1" fill-rule="nonzero"/></g><g clip-path="url(#942759ce57)"><path fill="#231f20" d="M 161.007812 161.101562 C 161.117188 161.101562 161.226562 161.109375 161.335938 161.128906 C 161.335938 161.128906 161.339844 161.128906 161.339844 161.128906 L 172.175781 162.980469 C 172.863281 163.097656 173.441406 163.570312 173.695312 164.222656 C 173.695312 164.222656 173.695312 164.226562 173.695312 164.226562 L 178.722656 177.117188 L 227.785156 178.34375 C 228.351562 178.355469 228.878906 178.609375 229.246094 179.035156 C 229.613281 179.460938 229.789062 180.027344 229.722656 180.589844 L 227.011719 202.992188 C 226.902344 203.929688 226.125 204.675781 225.179688 204.75 L 190.203125 207.53125 L 183.273438 212.984375 C 183.265625 212.992188 183.253906 212.996094 183.246094 213.003906 C 183.238281 213.007812 183.230469 213.011719 183.222656 213.015625 C 183.214844 213.019531 183.207031 213.027344 183.199219 213.035156 C 181.933594 213.976562 181.621094 215.265625 181.800781 215.980469 C 181.902344 216.386719 182.054688 216.6875 182.425781 216.917969 C 182.796875 217.148438 183.433594 217.3125 184.527344 217.25 C 184.53125 217.25 184.535156 217.25 184.539062 217.25 C 184.574219 217.25 184.613281 217.25 184.648438 217.25 C 184.652344 217.25 184.660156 217.25 184.664062 217.25 L 226.382812 217.375 L 226.386719 217.375 C 227.484375 217.367188 228.40625 218.285156 228.402344 219.382812 C 228.398438 220.476562 227.472656 221.394531 226.375 221.378906 L 226.371094 221.378906 L 223.320312 221.371094 C 224.453125 222.09375 225.214844 223.359375 225.214844 224.792969 C 225.214844 227.023438 223.386719 228.851562 221.152344 228.851562 C 218.921875 228.851562 217.09375 227.023438 217.09375 224.792969 C 217.09375 223.351562 217.855469 222.074219 219 221.355469 L 184.648438 221.257812 C 185.882812 221.953125 186.726562 223.277344 186.726562 224.792969 C 186.726562 227.023438 184.902344 228.851562 182.667969 228.851562 C 180.4375 228.851562 178.609375 227.023438 178.609375 224.792969 C 178.609375 222.855469 179.984375 221.21875 181.8125 220.824219 C 180.085938 220.214844 178.761719 218.957031 177.941406 217.03125 C 177.929688 217.007812 177.917969 216.984375 177.910156 216.960938 C 177.28125 214.445312 178.394531 211.707031 180.695312 209.929688 C 180.703125 209.921875 180.710938 209.917969 180.714844 209.910156 C 180.722656 209.90625 180.722656 209.898438 180.726562 209.894531 C 180.746094 209.867188 180.769531 209.847656 180.792969 209.828125 L 185.707031 205.972656 L 170.386719 166.734375 L 160.667969 165.078125 C 160.664062 165.078125 160.664062 165.082031 160.660156 165.078125 C 159.640625 164.914062 158.894531 163.964844 158.980469 162.929688 C 159.070312 161.898438 159.972656 161.085938 161.007812 161.097656 Z M 180.203125 180.210938 L 183.027344 187.453125 L 186.710938 187.453125 L 186.710938 180.375 Z M 188.113281 180.410156 L 188.113281 187.453125 L 194.914062 187.453125 L 194.914062 180.582031 Z M 196.320312 180.613281 L 196.320312 187.453125 L 203.117188 187.453125 L 203.117188 180.78125 Z M 204.523438 180.820312 L 204.523438 187.453125 L 211.320312 187.453125 L 211.320312 180.988281 Z M 212.726562 181.027344 L 212.726562 187.453125 L 219.527344 187.453125 L 219.527344 181.195312 Z M 220.933594 181.226562 L 220.933594 187.453125 L 225.917969 187.453125 L 226.652344 181.375 Z M 225.746094 188.851562 L 220.933594 188.851562 L 220.933594 195.214844 L 224.980469 195.214844 Z M 219.527344 188.851562 L 212.726562 188.851562 L 212.726562 195.214844 L 219.527344 195.214844 Z M 211.320312 188.851562 L 204.523438 188.851562 L 204.523438 195.214844 L 211.320312 195.214844 Z M 203.117188 188.851562 L 196.320312 188.851562 L 196.320312 195.214844 L 203.117188 195.214844 Z M 194.914062 188.851562 L 188.113281 188.851562 L 188.113281 195.214844 L 194.914062 195.214844 Z M 186.710938 188.851562 L 183.570312 188.851562 L 186.050781 195.214844 L 186.710938 195.214844 Z M 224.808594 196.613281 L 220.929688 196.613281 L 220.929688 201.179688 L 224.292969 200.910156 Z M 219.527344 196.613281 L 212.726562 196.613281 L 212.726562 201.828125 L 219.527344 201.289062 Z M 211.320312 196.613281 L 204.523438 196.613281 L 204.523438 202.480469 L 211.320312 201.945312 Z M 203.117188 196.613281 L 196.320312 196.613281 L 196.320312 203.136719 L 203.117188 202.597656 Z M 194.914062 196.613281 L 188.113281 196.613281 L 188.113281 200.484375 L 189.40625 203.789062 C 189.570312 203.707031 189.753906 203.65625 189.941406 203.644531 L 194.914062 203.246094 Z M 186.707031 196.613281 L 186.605469 196.613281 L 186.707031 196.898438 Z M 221.148438 222.40625 C 219.824219 222.40625 218.765625 223.464844 218.765625 224.792969 C 218.765625 226.121094 219.824219 227.171875 221.148438 227.171875 C 222.476562 227.171875 223.535156 226.121094 223.535156 224.792969 C 223.535156 223.464844 222.476562 222.40625 221.148438 222.40625 Z M 182.667969 222.40625 C 181.339844 222.40625 180.28125 223.464844 180.28125 224.792969 C 180.28125 226.121094 181.339844 227.171875 182.667969 227.171875 C 183.992188 227.171875 185.054688 226.121094 185.054688 224.792969 C 185.054688 223.464844 183.992188 222.40625 182.667969 222.40625 Z M 221.148438 223.539062 C 221.871094 223.539062 222.445312 224.113281 222.445312 224.835938 C 222.445312 225.554688 221.871094 226.125 221.148438 226.125 C 220.429688 226.125 219.851562 225.554688 219.851562 224.835938 C 219.851562 224.113281 220.429688 223.539062 221.148438 223.539062 Z M 182.667969 223.539062 C 183.386719 223.539062 183.964844 224.113281 183.964844 224.835938 C 183.964844 225.554688 183.386719 226.125 182.667969 226.125 C 181.945312 226.125 181.371094 225.554688 181.371094 224.835938 C 181.371094 224.113281 181.945312 223.539062 182.667969 223.539062 Z M 182.667969 223.539062 " fill-opacity="1" fill-rule="nonzero"/></g><g fill="#231f20" fill-opacity="1"><g transform="translate(132.123079, 269.384586)"><g><path d="M 1.65625 0.25 C 0.976562 0.269531 0.445312 0.09375 0.0625 -0.28125 C -0.3125 -0.664062 -0.5 -1.160156 -0.5 -1.765625 C -0.5 -2.222656 -0.359375 -2.625 -0.078125 -2.96875 C 0.191406 -3.3125 0.585938 -3.5 1.109375 -3.53125 L 2.203125 -3.59375 C 3.253906 -3.664062 4.050781 -3.992188 4.59375 -4.578125 C 5.132812 -5.171875 5.40625 -6.019531 5.40625 -7.125 L 5.40625 -23.328125 C 5.40625 -24.097656 5.601562 -24.679688 6 -25.078125 C 6.394531 -25.472656 6.960938 -25.671875 7.703125 -25.671875 C 8.441406 -25.671875 9.007812 -25.472656 9.40625 -25.078125 C 9.8125 -24.679688 10.015625 -24.097656 10.015625 -23.328125 L 10.015625 -7.15625 C 10.015625 -5.644531 9.742188 -4.363281 9.203125 -3.3125 C 8.660156 -2.257812 7.859375 -1.4375 6.796875 -0.84375 C 5.742188 -0.257812 4.4375 0.0820312 2.875 0.1875 Z M 1.65625 0.25 "/></g></g></g><g fill="#231f20" fill-opacity="1"><g transform="translate(144.867105, 269.384586)"><g><path d="M 14.140625 0.359375 C 11.691406 0.359375 9.550781 -0.175781 7.71875 -1.25 C 5.882812 -2.332031 4.460938 -3.851562 3.453125 -5.8125 C 2.441406 -7.769531 1.9375 -10.066406 1.9375 -12.703125 C 1.9375 -14.703125 2.222656 -16.5 2.796875 -18.09375 C 3.378906 -19.6875 4.203125 -21.050781 5.265625 -22.1875 C 6.335938 -23.332031 7.625 -24.207031 9.125 -24.8125 C 10.625 -25.425781 12.296875 -25.734375 14.140625 -25.734375 C 16.617188 -25.734375 18.769531 -25.195312 20.59375 -24.125 C 22.414062 -23.0625 23.832031 -21.554688 24.84375 -19.609375 C 25.851562 -17.671875 26.359375 -15.382812 26.359375 -12.75 C 26.359375 -10.75 26.066406 -8.945312 25.484375 -7.34375 C 24.910156 -5.738281 24.085938 -4.359375 23.015625 -3.203125 C 21.953125 -2.046875 20.671875 -1.160156 19.171875 -0.546875 C 17.671875 0.0546875 15.992188 0.359375 14.140625 0.359375 Z M 14.140625 -3.59375 C 15.703125 -3.59375 17.03125 -3.953125 18.125 -4.671875 C 19.21875 -5.398438 20.054688 -6.445312 20.640625 -7.8125 C 21.234375 -9.175781 21.53125 -10.804688 21.53125 -12.703125 C 21.53125 -15.585938 20.882812 -17.820312 19.59375 -19.40625 C 18.3125 -20.988281 16.492188 -21.78125 14.140625 -21.78125 C 12.609375 -21.78125 11.289062 -21.425781 10.1875 -20.71875 C 9.082031 -20.007812 8.234375 -18.976562 7.640625 -17.625 C 7.054688 -16.269531 6.765625 -14.628906 6.765625 -12.703125 C 6.765625 -9.847656 7.410156 -7.613281 8.703125 -6 C 10.003906 -4.394531 11.816406 -3.59375 14.140625 -3.59375 Z M 14.140625 -3.59375 "/></g></g></g><g fill="#231f20" fill-opacity="1"><g transform="translate(173.127155, 269.384586)"><g><path d="M 5.078125 0.28125 C 4.328125 0.28125 3.753906 0.0703125 3.359375 -0.34375 C 2.960938 -0.757812 2.765625 -1.34375 2.765625 -2.09375 L 2.765625 -23.296875 C 2.765625 -24.054688 2.960938 -24.640625 3.359375 -25.046875 C 3.753906 -25.460938 4.328125 -25.671875 5.078125 -25.671875 C 5.816406 -25.671875 6.382812 -25.460938 6.78125 -25.046875 C 7.175781 -24.640625 7.375 -24.054688 7.375 -23.296875 L 7.375 -2.09375 C 7.375 -1.34375 7.179688 -0.757812 6.796875 -0.34375 C 6.421875 0.0703125 5.847656 0.28125 5.078125 0.28125 Z M 5.078125 0.28125 "/></g></g></g><g fill="#231f20" fill-opacity="1"><g transform="translate(183.279173, 269.384586)"><g><path d="M 4.9375 0.28125 C 4.238281 0.28125 3.703125 0.09375 3.328125 -0.28125 C 2.953125 -0.664062 2.765625 -1.21875 2.765625 -1.9375 L 2.765625 -23.359375 C 2.765625 -24.109375 2.953125 -24.679688 3.328125 -25.078125 C 3.703125 -25.472656 4.1875 -25.671875 4.78125 -25.671875 C 5.332031 -25.671875 5.742188 -25.566406 6.015625 -25.359375 C 6.296875 -25.160156 6.628906 -24.820312 7.015625 -24.34375 L 20.8125 -6.4375 L 19.875 -6.4375 L 19.875 -23.46875 C 19.875 -24.164062 20.054688 -24.707031 20.421875 -25.09375 C 20.796875 -25.476562 21.332031 -25.671875 22.03125 -25.671875 C 22.726562 -25.671875 23.253906 -25.476562 23.609375 -25.09375 C 23.972656 -24.707031 24.15625 -24.164062 24.15625 -23.46875 L 24.15625 -1.875 C 24.15625 -1.195312 23.984375 -0.664062 23.640625 -0.28125 C 23.304688 0.09375 22.851562 0.28125 22.28125 0.28125 C 21.726562 0.28125 21.289062 0.175781 20.96875 -0.03125 C 20.644531 -0.25 20.289062 -0.597656 19.90625 -1.078125 L 6.15625 -18.96875 L 7.0625 -18.96875 L 7.0625 -1.9375 C 7.0625 -1.21875 6.878906 -0.664062 6.515625 -0.28125 C 6.148438 0.09375 5.625 0.28125 4.9375 0.28125 Z M 4.9375 0.28125 "/></g></g></g><g fill="#231f20" fill-opacity="1"><g transform="translate(210.207223, 269.384586)"><g><path d="M 11.203125 0.28125 C 10.453125 0.28125 9.878906 0.0703125 9.484375 -0.34375 C 9.085938 -0.757812 8.890625 -1.34375 8.890625 -2.09375 L 8.890625 -21.53125 L 1.875 -21.53125 C 1.25 -21.53125 0.757812 -21.703125 0.40625 -22.046875 C 0.0625 -22.398438 -0.109375 -22.875 -0.109375 -23.46875 C -0.109375 -24.09375 0.0625 -24.566406 0.40625 -24.890625 C 0.757812 -25.210938 1.25 -25.375 1.875 -25.375 L 20.515625 -25.375 C 21.140625 -25.375 21.625 -25.210938 21.96875 -24.890625 C 22.320312 -24.566406 22.5 -24.09375 22.5 -23.46875 C 22.5 -22.875 22.320312 -22.398438 21.96875 -22.046875 C 21.625 -21.703125 21.140625 -21.53125 20.515625 -21.53125 L 13.5 -21.53125 L 13.5 -2.09375 C 13.5 -1.34375 13.304688 -0.757812 12.921875 -0.34375 C 12.535156 0.0703125 11.960938 0.28125 11.203125 0.28125 Z M 11.203125 0.28125 "/></g></g></g><g fill="#ff9f43" fill-opacity="1"><g transform="translate(232.564479, 269.384586)"><g><path d="M 3.640625 0.28125 C 3.035156 0.28125 2.539062 0.117188 2.15625 -0.203125 C 1.769531 -0.523438 1.546875 -0.929688 1.484375 -1.421875 C 1.429688 -1.910156 1.597656 -2.410156 1.984375 -2.921875 L 10.21875 -13.890625 L 10.21875 -11.921875 L 2.375 -22.421875 C 1.988281 -22.953125 1.816406 -23.460938 1.859375 -23.953125 C 1.910156 -24.453125 2.128906 -24.863281 2.515625 -25.1875 C 2.898438 -25.507812 3.378906 -25.671875 3.953125 -25.671875 C 4.441406 -25.671875 4.867188 -25.554688 5.234375 -25.328125 C 5.609375 -25.097656 5.988281 -24.71875 6.375 -24.1875 L 12.859375 -15.265625 L 11.375 -15.265625 L 17.8125 -24.1875 C 18.195312 -24.71875 18.578125 -25.097656 18.953125 -25.328125 C 19.328125 -25.554688 19.765625 -25.671875 20.265625 -25.671875 C 20.867188 -25.671875 21.359375 -25.515625 21.734375 -25.203125 C 22.117188 -24.890625 22.335938 -24.484375 22.390625 -23.984375 C 22.441406 -23.492188 22.265625 -22.972656 21.859375 -22.421875 L 14 -11.921875 L 14 -13.890625 L 22.21875 -2.921875 C 22.59375 -2.410156 22.753906 -1.910156 22.703125 -1.421875 C 22.660156 -0.929688 22.445312 -0.523438 22.0625 -0.203125 C 21.675781 0.117188 21.175781 0.28125 20.5625 0.28125 C 20.101562 0.28125 19.6875 0.160156 19.3125 -0.078125 C 18.9375 -0.316406 18.546875 -0.695312 18.140625 -1.21875 L 11.296875 -10.578125 L 12.890625 -10.578125 L 6.078125 -1.21875 C 5.703125 -0.695312 5.320312 -0.316406 4.9375 -0.078125 C 4.550781 0.160156 4.117188 0.28125 3.640625 0.28125 Z M 3.640625 0.28125 "/></g></g></g></svg>