<svg xmlns="http://www.w3.org/2000/svg" xmlns:xlink="http://www.w3.org/1999/xlink" width="500" zoomAndPan="magnify" viewBox="0 0 375 374.999991" height="500" preserveAspectRatio="xMidYMid meet" version="1.0"><defs><g/></defs><g fill="#000000" fill-opacity="1"><g transform="translate(117.95577, 201.855191)"><g><path d="M 0.21875 8.5 C -0.4375 8.5625 -0.972656 8.460938 -1.390625 8.203125 C -1.816406 7.953125 -2.109375 7.628906 -2.265625 7.234375 C -2.429688 6.847656 -2.484375 6.445312 -2.421875 6.03125 C -2.367188 5.613281 -2.195312 5.242188 -1.90625 4.921875 C -1.625 4.609375 -1.242188 4.4375 -0.765625 4.40625 C 0.585938 4.289062 1.570312 3.910156 2.1875 3.265625 C 2.800781 2.617188 3.109375 1.632812 3.109375 0.3125 L 3.109375 -19.53125 C 3.109375 -20.457031 3.351562 -21.160156 3.84375 -21.640625 C 4.34375 -22.117188 5.039062 -22.359375 5.9375 -22.359375 C 6.84375 -22.359375 7.535156 -22.117188 8.015625 -21.640625 C 8.492188 -21.160156 8.734375 -20.457031 8.734375 -19.53125 L 8.734375 -0.1875 C 8.734375 1.738281 8.425781 3.316406 7.8125 4.546875 C 7.195312 5.773438 6.265625 6.703125 5.015625 7.328125 C 3.773438 7.960938 2.175781 8.351562 0.21875 8.5 Z M 5.890625 -26.5 C 4.835938 -26.5 4.019531 -26.757812 3.4375 -27.28125 C 2.851562 -27.8125 2.5625 -28.539062 2.5625 -29.46875 C 2.5625 -30.4375 2.851562 -31.171875 3.4375 -31.671875 C 4.019531 -32.179688 4.835938 -32.4375 5.890625 -32.4375 C 6.972656 -32.4375 7.796875 -32.179688 8.359375 -31.671875 C 8.929688 -31.171875 9.21875 -30.4375 9.21875 -29.46875 C 9.21875 -28.539062 8.929688 -27.8125 8.359375 -27.28125 C 7.796875 -26.757812 6.972656 -26.5 5.890625 -26.5 Z M 5.890625 -26.5 "/></g></g></g><g fill="#000000" fill-opacity="1"><g transform="translate(129.607743, 201.855191)"><g><path d="M 12.953125 0.453125 C 10.679688 0.453125 8.703125 -0.0078125 7.015625 -0.9375 C 5.335938 -1.875 4.03125 -3.203125 3.09375 -4.921875 C 2.164062 -6.648438 1.703125 -8.6875 1.703125 -11.03125 C 1.703125 -12.800781 1.960938 -14.378906 2.484375 -15.765625 C 3.015625 -17.160156 3.773438 -18.359375 4.765625 -19.359375 C 5.753906 -20.367188 6.9375 -21.132812 8.3125 -21.65625 C 9.695312 -22.1875 11.242188 -22.453125 12.953125 -22.453125 C 15.234375 -22.453125 17.210938 -21.988281 18.890625 -21.0625 C 20.578125 -20.132812 21.882812 -18.8125 22.8125 -17.09375 C 23.738281 -15.382812 24.203125 -13.363281 24.203125 -11.03125 C 24.203125 -9.257812 23.941406 -7.664062 23.421875 -6.25 C 22.898438 -4.84375 22.144531 -3.632812 21.15625 -2.625 C 20.164062 -1.625 18.976562 -0.859375 17.59375 -0.328125 C 16.21875 0.191406 14.671875 0.453125 12.953125 0.453125 Z M 12.953125 -3.828125 C 14.066406 -3.828125 15.039062 -4.09375 15.875 -4.625 C 16.71875 -5.164062 17.375 -5.96875 17.84375 -7.03125 C 18.3125 -8.101562 18.546875 -9.4375 18.546875 -11.03125 C 18.546875 -13.425781 18.035156 -15.21875 17.015625 -16.40625 C 15.992188 -17.59375 14.640625 -18.1875 12.953125 -18.1875 C 11.847656 -18.1875 10.875 -17.921875 10.03125 -17.390625 C 9.195312 -16.867188 8.546875 -16.070312 8.078125 -15 C 7.609375 -13.9375 7.375 -12.613281 7.375 -11.03125 C 7.375 -8.65625 7.882812 -6.859375 8.90625 -5.640625 C 9.925781 -4.429688 11.273438 -3.828125 12.953125 -3.828125 Z M 12.953125 -3.828125 "/></g></g></g><g fill="#000000" fill-opacity="1"><g transform="translate(155.521022, 201.855191)"><g><path d="M 5.71875 0.3125 C 4.8125 0.3125 4.117188 0.0390625 3.640625 -0.5 C 3.160156 -1.039062 2.921875 -1.789062 2.921875 -2.75 L 2.921875 -19.265625 C 2.921875 -20.253906 3.160156 -21.007812 3.640625 -21.53125 C 4.117188 -22.050781 4.8125 -22.3125 5.71875 -22.3125 C 6.613281 -22.3125 7.304688 -22.050781 7.796875 -21.53125 C 8.296875 -21.007812 8.546875 -20.253906 8.546875 -19.265625 L 8.546875 -2.75 C 8.546875 -1.789062 8.304688 -1.039062 7.828125 -0.5 C 7.347656 0.0390625 6.644531 0.3125 5.71875 0.3125 Z M 5.71875 -26.5 C 4.664062 -26.5 3.847656 -26.757812 3.265625 -27.28125 C 2.679688 -27.8125 2.390625 -28.539062 2.390625 -29.46875 C 2.390625 -30.4375 2.679688 -31.171875 3.265625 -31.671875 C 3.847656 -32.179688 4.664062 -32.4375 5.71875 -32.4375 C 6.789062 -32.4375 7.613281 -32.179688 8.1875 -31.671875 C 8.757812 -31.171875 9.046875 -30.4375 9.046875 -29.46875 C 9.046875 -28.539062 8.757812 -27.8125 8.1875 -27.28125 C 7.613281 -26.757812 6.789062 -26.5 5.71875 -26.5 Z M 5.71875 -26.5 "/></g></g></g><g fill="#000000" fill-opacity="1"><g transform="translate(166.993048, 201.855191)"><g><path d="M 5.71875 0.359375 C 4.8125 0.359375 4.117188 0.113281 3.640625 -0.375 C 3.160156 -0.875 2.921875 -1.585938 2.921875 -2.515625 L 2.921875 -19.53125 C 2.921875 -20.457031 3.160156 -21.160156 3.640625 -21.640625 C 4.117188 -22.117188 4.796875 -22.359375 5.671875 -22.359375 C 6.535156 -22.359375 7.207031 -22.117188 7.6875 -21.640625 C 8.175781 -21.160156 8.421875 -20.457031 8.421875 -19.53125 L 8.421875 -16.46875 L 7.921875 -17.59375 C 8.578125 -19.1875 9.601562 -20.394531 11 -21.21875 C 12.394531 -22.039062 13.976562 -22.453125 15.75 -22.453125 C 17.519531 -22.453125 18.972656 -22.117188 20.109375 -21.453125 C 21.253906 -20.796875 22.109375 -19.800781 22.671875 -18.46875 C 23.242188 -17.132812 23.53125 -15.445312 23.53125 -13.40625 L 23.53125 -2.515625 C 23.53125 -1.585938 23.289062 -0.875 22.8125 -0.375 C 22.332031 0.113281 21.644531 0.359375 20.75 0.359375 C 19.84375 0.359375 19.140625 0.113281 18.640625 -0.375 C 18.148438 -0.875 17.90625 -1.585938 17.90625 -2.515625 L 17.90625 -13.140625 C 17.90625 -14.847656 17.582031 -16.09375 16.9375 -16.875 C 16.289062 -17.65625 15.296875 -18.046875 13.953125 -18.046875 C 12.296875 -18.046875 10.976562 -17.523438 10 -16.484375 C 9.03125 -15.453125 8.546875 -14.082031 8.546875 -12.375 L 8.546875 -2.515625 C 8.546875 -0.597656 7.601562 0.359375 5.71875 0.359375 Z M 5.71875 0.359375 "/></g></g></g><g fill="#000000" fill-opacity="1"><g transform="translate(193.31122, 201.855191)"><g><path d="M 13 0.453125 C 11.050781 0.453125 9.425781 0.125 8.125 -0.53125 C 6.820312 -1.195312 5.851562 -2.164062 5.21875 -3.4375 C 4.59375 -4.71875 4.28125 -6.300781 4.28125 -8.1875 L 4.28125 -17.78125 L 1.9375 -17.78125 C 1.21875 -17.78125 0.660156 -17.96875 0.265625 -18.34375 C -0.117188 -18.71875 -0.3125 -19.234375 -0.3125 -19.890625 C -0.3125 -20.578125 -0.117188 -21.097656 0.265625 -21.453125 C 0.660156 -21.816406 1.21875 -22 1.9375 -22 L 4.28125 -22 L 4.28125 -26.09375 C 4.28125 -27.03125 4.523438 -27.738281 5.015625 -28.21875 C 5.515625 -28.695312 6.210938 -28.9375 7.109375 -28.9375 C 8.003906 -28.9375 8.691406 -28.695312 9.171875 -28.21875 C 9.660156 -27.738281 9.90625 -27.03125 9.90625 -26.09375 L 9.90625 -22 L 14.671875 -22 C 15.390625 -22 15.941406 -21.816406 16.328125 -21.453125 C 16.722656 -21.097656 16.921875 -20.578125 16.921875 -19.890625 C 16.921875 -19.234375 16.722656 -18.71875 16.328125 -18.34375 C 15.941406 -17.96875 15.390625 -17.78125 14.671875 -17.78125 L 9.90625 -17.78125 L 9.90625 -8.5 C 9.90625 -7.0625 10.21875 -5.984375 10.84375 -5.265625 C 11.476562 -4.546875 12.5 -4.1875 13.90625 -4.1875 C 14.414062 -4.1875 14.863281 -4.226562 15.25 -4.3125 C 15.644531 -4.40625 15.992188 -4.46875 16.296875 -4.5 C 16.648438 -4.53125 16.945312 -4.414062 17.1875 -4.15625 C 17.425781 -3.90625 17.546875 -3.390625 17.546875 -2.609375 C 17.546875 -2.003906 17.445312 -1.46875 17.25 -1 C 17.0625 -0.539062 16.710938 -0.222656 16.203125 -0.046875 C 15.804688 0.078125 15.289062 0.191406 14.65625 0.296875 C 14.03125 0.398438 13.476562 0.453125 13 0.453125 Z M 13 0.453125 "/></g></g></g><g fill="#ff9f43" fill-opacity="1"><g transform="translate(210.592483, 201.855191)"><g><path d="M 4.546875 0.359375 C 3.796875 0.359375 3.179688 0.15625 2.703125 -0.25 C 2.222656 -0.65625 1.941406 -1.164062 1.859375 -1.78125 C 1.785156 -2.394531 1.988281 -3.015625 2.46875 -3.640625 L 12.78125 -17.375 L 12.78125 -14.890625 L 2.96875 -28.03125 C 2.488281 -28.695312 2.28125 -29.335938 2.34375 -29.953125 C 2.40625 -30.566406 2.675781 -31.070312 3.15625 -31.46875 C 3.632812 -31.875 4.234375 -32.078125 4.953125 -32.078125 C 5.546875 -32.078125 6.078125 -31.9375 6.546875 -31.65625 C 7.015625 -31.375 7.488281 -30.898438 7.96875 -30.234375 L 16.0625 -19.078125 L 14.21875 -19.078125 L 22.28125 -30.234375 C 22.757812 -30.898438 23.226562 -31.375 23.6875 -31.65625 C 24.15625 -31.9375 24.703125 -32.078125 25.328125 -32.078125 C 26.078125 -32.078125 26.691406 -31.882812 27.171875 -31.5 C 27.660156 -31.113281 27.929688 -30.609375 27.984375 -29.984375 C 28.046875 -29.367188 27.820312 -28.71875 27.3125 -28.03125 L 17.5 -14.890625 L 17.5 -17.375 L 27.765625 -3.640625 C 28.242188 -3.015625 28.453125 -2.394531 28.390625 -1.78125 C 28.335938 -1.164062 28.066406 -0.65625 27.578125 -0.25 C 27.097656 0.15625 26.46875 0.359375 25.6875 0.359375 C 25.125 0.359375 24.609375 0.207031 24.140625 -0.09375 C 23.671875 -0.394531 23.1875 -0.875 22.6875 -1.53125 L 14.125 -13.234375 L 16.109375 -13.234375 L 7.609375 -1.53125 C 7.128906 -0.875 6.644531 -0.394531 6.15625 -0.09375 C 5.675781 0.207031 5.140625 0.359375 4.546875 0.359375 Z M 4.546875 0.359375 "/></g></g></g></svg>