<svg xmlns="http://www.w3.org/2000/svg" xmlns:xlink="http://www.w3.org/1999/xlink" width="500" zoomAndPan="magnify" viewBox="0 0 375 374.999991" height="500" preserveAspectRatio="xMidYMid meet" version="1.0"><defs><g/><clipPath id="1a670a0d7b"><path d="M 145.160156 145.941406 L 216.378906 145.941406 L 216.378906 217.15625 L 145.160156 217.15625 Z M 145.160156 145.941406 " clip-rule="nonzero"/></clipPath><clipPath id="aa8fbf19dc"><path d="M 158.855469 161.082031 L 229.835938 161.082031 L 229.835938 228.984375 L 158.855469 228.984375 Z M 158.855469 161.082031 " clip-rule="nonzero"/></clipPath></defs><g clip-path="url(#1a670a0d7b)"><path fill="#ff9f43" d="M 214.226562 180.027344 L 182.21875 148.019531 C 180.921875 146.742188 179.140625 145.941406 177.183594 145.941406 L 152.277344 145.941406 C 148.347656 145.941406 145.160156 149.125 145.160156 153.054688 L 145.160156 177.964844 C 145.160156 179.9375 145.960938 181.71875 147.261719 183 L 179.285156 215.023438 C 180.566406 216.304688 182.34375 217.105469 184.300781 217.105469 C 186.257812 217.105469 188.054688 216.304688 189.335938 215.023438 L 214.246094 190.113281 C 215.523438 188.816406 216.324219 187.039062 216.324219 185.082031 C 216.324219 183.105469 215.523438 181.328125 214.226562 180.027344 Z M 157.613281 163.730469 C 154.660156 163.730469 152.277344 161.347656 152.277344 158.394531 C 152.277344 155.441406 154.660156 153.054688 157.613281 153.054688 C 160.570312 153.054688 162.953125 155.441406 162.953125 158.394531 C 162.953125 161.347656 160.570312 163.730469 157.613281 163.730469 Z M 157.613281 163.730469 " fill-opacity="1" fill-rule="nonzero"/></g><g clip-path="url(#aa8fbf19dc)"><path fill="#231f20" d="M 161.007812 161.101562 C 161.117188 161.101562 161.226562 161.109375 161.335938 161.128906 C 161.335938 161.128906 161.339844 161.128906 161.339844 161.128906 L 172.175781 162.980469 C 172.863281 163.097656 173.441406 163.570312 173.695312 164.222656 C 173.695312 164.222656 173.695312 164.226562 173.695312 164.226562 L 178.722656 177.117188 L 227.785156 178.34375 C 228.351562 178.355469 228.878906 178.609375 229.246094 179.035156 C 229.613281 179.460938 229.789062 180.027344 229.722656 180.589844 L 227.011719 202.992188 C 226.902344 203.929688 226.125 204.675781 225.179688 204.75 L 190.203125 207.53125 L 183.273438 212.984375 C 183.265625 212.992188 183.253906 212.996094 183.246094 213.003906 C 183.238281 213.007812 183.230469 213.011719 183.222656 213.015625 C 183.214844 213.019531 183.207031 213.027344 183.199219 213.035156 C 181.933594 213.976562 181.621094 215.265625 181.800781 215.980469 C 181.902344 216.386719 182.054688 216.6875 182.425781 216.917969 C 182.796875 217.148438 183.433594 217.3125 184.527344 217.25 C 184.53125 217.25 184.535156 217.25 184.539062 217.25 C 184.574219 217.25 184.613281 217.25 184.648438 217.25 C 184.652344 217.25 184.660156 217.25 184.664062 217.25 L 226.382812 217.375 L 226.386719 217.375 C 227.484375 217.367188 228.40625 218.285156 228.402344 219.382812 C 228.398438 220.476562 227.472656 221.394531 226.375 221.378906 L 226.371094 221.378906 L 223.320312 221.371094 C 224.453125 222.09375 225.214844 223.359375 225.214844 224.792969 C 225.214844 227.023438 223.386719 228.851562 221.152344 228.851562 C 218.921875 228.851562 217.09375 227.023438 217.09375 224.792969 C 217.09375 223.351562 217.855469 222.074219 219 221.355469 L 184.648438 221.257812 C 185.882812 221.953125 186.726562 223.277344 186.726562 224.792969 C 186.726562 227.023438 184.902344 228.851562 182.667969 228.851562 C 180.4375 228.851562 178.609375 227.023438 178.609375 224.792969 C 178.609375 222.855469 179.984375 221.21875 181.8125 220.824219 C 180.085938 220.214844 178.761719 218.957031 177.941406 217.03125 C 177.929688 217.007812 177.917969 216.984375 177.910156 216.960938 C 177.28125 214.445312 178.394531 211.707031 180.695312 209.929688 C 180.703125 209.921875 180.710938 209.917969 180.714844 209.910156 C 180.722656 209.90625 180.722656 209.898438 180.726562 209.894531 C 180.746094 209.867188 180.769531 209.847656 180.792969 209.828125 L 185.707031 205.972656 L 170.386719 166.734375 L 160.667969 165.078125 C 160.664062 165.078125 160.664062 165.082031 160.660156 165.078125 C 159.640625 164.914062 158.894531 163.964844 158.980469 162.929688 C 159.070312 161.898438 159.972656 161.085938 161.007812 161.097656 Z M 180.203125 180.210938 L 183.027344 187.453125 L 186.710938 187.453125 L 186.710938 180.375 Z M 188.113281 180.410156 L 188.113281 187.453125 L 194.914062 187.453125 L 194.914062 180.582031 Z M 196.320312 180.613281 L 196.320312 187.453125 L 203.117188 187.453125 L 203.117188 180.78125 Z M 204.523438 180.820312 L 204.523438 187.453125 L 211.320312 187.453125 L 211.320312 180.988281 Z M 212.726562 181.027344 L 212.726562 187.453125 L 219.527344 187.453125 L 219.527344 181.195312 Z M 220.933594 181.226562 L 220.933594 187.453125 L 225.917969 187.453125 L 226.652344 181.375 Z M 225.746094 188.851562 L 220.933594 188.851562 L 220.933594 195.214844 L 224.980469 195.214844 Z M 219.527344 188.851562 L 212.726562 188.851562 L 212.726562 195.214844 L 219.527344 195.214844 Z M 211.320312 188.851562 L 204.523438 188.851562 L 204.523438 195.214844 L 211.320312 195.214844 Z M 203.117188 188.851562 L 196.320312 188.851562 L 196.320312 195.214844 L 203.117188 195.214844 Z M 194.914062 188.851562 L 188.113281 188.851562 L 188.113281 195.214844 L 194.914062 195.214844 Z M 186.710938 188.851562 L 183.570312 188.851562 L 186.050781 195.214844 L 186.710938 195.214844 Z M 224.808594 196.613281 L 220.929688 196.613281 L 220.929688 201.179688 L 224.292969 200.910156 Z M 219.527344 196.613281 L 212.726562 196.613281 L 212.726562 201.828125 L 219.527344 201.289062 Z M 211.320312 196.613281 L 204.523438 196.613281 L 204.523438 202.480469 L 211.320312 201.945312 Z M 203.117188 196.613281 L 196.320312 196.613281 L 196.320312 203.136719 L 203.117188 202.597656 Z M 194.914062 196.613281 L 188.113281 196.613281 L 188.113281 200.484375 L 189.40625 203.789062 C 189.570312 203.707031 189.753906 203.65625 189.941406 203.644531 L 194.914062 203.246094 Z M 186.707031 196.613281 L 186.605469 196.613281 L 186.707031 196.898438 Z M 221.148438 222.40625 C 219.824219 222.40625 218.765625 223.464844 218.765625 224.792969 C 218.765625 226.121094 219.824219 227.171875 221.148438 227.171875 C 222.476562 227.171875 223.535156 226.121094 223.535156 224.792969 C 223.535156 223.464844 222.476562 222.40625 221.148438 222.40625 Z M 182.667969 222.40625 C 181.339844 222.40625 180.28125 223.464844 180.28125 224.792969 C 180.28125 226.121094 181.339844 227.171875 182.667969 227.171875 C 183.992188 227.171875 185.054688 226.121094 185.054688 224.792969 C 185.054688 223.464844 183.992188 222.40625 182.667969 222.40625 Z M 221.148438 223.539062 C 221.871094 223.539062 222.445312 224.113281 222.445312 224.835938 C 222.445312 225.554688 221.871094 226.125 221.148438 226.125 C 220.429688 226.125 219.851562 225.554688 219.851562 224.835938 C 219.851562 224.113281 220.429688 223.539062 221.148438 223.539062 Z M 182.667969 223.539062 C 183.386719 223.539062 183.964844 224.113281 183.964844 224.835938 C 183.964844 225.554688 183.386719 226.125 182.667969 226.125 C 181.945312 226.125 181.371094 225.554688 181.371094 224.835938 C 181.371094 224.113281 181.945312 223.539062 182.667969 223.539062 Z M 182.667969 223.539062 " fill-opacity="1" fill-rule="nonzero"/></g><g fill="#000000" fill-opacity="1"><g transform="translate(127.419709, 269.239859)"><g><path d="M 0.21875 8.3125 C -0.425781 8.375 -0.953125 8.28125 -1.359375 8.03125 C -1.773438 7.78125 -2.0625 7.460938 -2.21875 7.078125 C -2.382812 6.703125 -2.4375 6.304688 -2.375 5.890625 C -2.3125 5.484375 -2.140625 5.125 -1.859375 4.8125 C -1.585938 4.507812 -1.21875 4.34375 -0.75 4.3125 C 0.570312 4.195312 1.53125 3.820312 2.125 3.1875 C 2.726562 2.5625 3.03125 1.601562 3.03125 0.3125 L 3.03125 -19.09375 C 3.03125 -20 3.269531 -20.6875 3.75 -21.15625 C 4.238281 -21.632812 4.925781 -21.875 5.8125 -21.875 C 6.6875 -21.875 7.359375 -21.632812 7.828125 -21.15625 C 8.296875 -20.6875 8.53125 -20 8.53125 -19.09375 L 8.53125 -0.171875 C 8.53125 1.703125 8.226562 3.238281 7.625 4.4375 C 7.03125 5.644531 6.125 6.554688 4.90625 7.171875 C 3.6875 7.785156 2.125 8.164062 0.21875 8.3125 Z M 5.765625 -25.921875 C 4.734375 -25.921875 3.929688 -26.175781 3.359375 -26.6875 C 2.796875 -27.195312 2.515625 -27.90625 2.515625 -28.8125 C 2.515625 -29.757812 2.796875 -30.476562 3.359375 -30.96875 C 3.929688 -31.46875 4.734375 -31.71875 5.765625 -31.71875 C 6.816406 -31.71875 7.617188 -31.46875 8.171875 -30.96875 C 8.734375 -30.476562 9.015625 -29.757812 9.015625 -28.8125 C 9.015625 -27.90625 8.734375 -27.195312 8.171875 -26.6875 C 7.617188 -26.175781 6.816406 -25.921875 5.765625 -25.921875 Z M 5.765625 -25.921875 "/></g></g></g><g fill="#000000" fill-opacity="1"><g transform="translate(138.813675, 269.239859)"><g><path d="M 12.671875 0.4375 C 10.441406 0.4375 8.503906 -0.015625 6.859375 -0.921875 C 5.222656 -1.828125 3.945312 -3.125 3.03125 -4.8125 C 2.125 -6.5 1.671875 -8.488281 1.671875 -10.78125 C 1.671875 -12.507812 1.925781 -14.054688 2.4375 -15.421875 C 2.957031 -16.785156 3.695312 -17.957031 4.65625 -18.9375 C 5.625 -19.925781 6.78125 -20.675781 8.125 -21.1875 C 9.476562 -21.695312 10.992188 -21.953125 12.671875 -21.953125 C 14.898438 -21.953125 16.832031 -21.5 18.46875 -20.59375 C 20.113281 -19.6875 21.390625 -18.394531 22.296875 -16.71875 C 23.210938 -15.050781 23.671875 -13.070312 23.671875 -10.78125 C 23.671875 -9.050781 23.410156 -7.492188 22.890625 -6.109375 C 22.378906 -4.734375 21.640625 -3.550781 20.671875 -2.5625 C 19.710938 -1.582031 18.554688 -0.835938 17.203125 -0.328125 C 15.859375 0.179688 14.347656 0.4375 12.671875 0.4375 Z M 12.671875 -3.734375 C 13.753906 -3.734375 14.707031 -4 15.53125 -4.53125 C 16.351562 -5.0625 16.988281 -5.847656 17.4375 -6.890625 C 17.894531 -7.929688 18.125 -9.226562 18.125 -10.78125 C 18.125 -13.125 17.625 -14.875 16.625 -16.03125 C 15.632812 -17.195312 14.316406 -17.78125 12.671875 -17.78125 C 11.585938 -17.78125 10.632812 -17.519531 9.8125 -17 C 8.988281 -16.488281 8.347656 -15.710938 7.890625 -14.671875 C 7.441406 -13.628906 7.21875 -12.332031 7.21875 -10.78125 C 7.21875 -8.457031 7.710938 -6.703125 8.703125 -5.515625 C 9.703125 -4.328125 11.023438 -3.734375 12.671875 -3.734375 Z M 12.671875 -3.734375 "/></g></g></g><g fill="#000000" fill-opacity="1"><g transform="translate(164.153158, 269.239859)"><g><path d="M 5.59375 0.3125 C 4.707031 0.3125 4.03125 0.046875 3.5625 -0.484375 C 3.09375 -1.015625 2.859375 -1.75 2.859375 -2.6875 L 2.859375 -18.828125 C 2.859375 -19.796875 3.09375 -20.535156 3.5625 -21.046875 C 4.03125 -21.566406 4.707031 -21.828125 5.59375 -21.828125 C 6.46875 -21.828125 7.144531 -21.566406 7.625 -21.046875 C 8.113281 -20.535156 8.359375 -19.796875 8.359375 -18.828125 L 8.359375 -2.6875 C 8.359375 -1.75 8.125 -1.015625 7.65625 -0.484375 C 7.1875 0.046875 6.5 0.3125 5.59375 0.3125 Z M 5.59375 -25.921875 C 4.5625 -25.921875 3.757812 -26.175781 3.1875 -26.6875 C 2.613281 -27.195312 2.328125 -27.90625 2.328125 -28.8125 C 2.328125 -29.757812 2.613281 -30.476562 3.1875 -30.96875 C 3.757812 -31.46875 4.5625 -31.71875 5.59375 -31.71875 C 6.644531 -31.71875 7.445312 -31.46875 8 -30.96875 C 8.5625 -30.476562 8.84375 -29.757812 8.84375 -28.8125 C 8.84375 -27.90625 8.5625 -27.195312 8 -26.6875 C 7.445312 -26.175781 6.644531 -25.921875 5.59375 -25.921875 Z M 5.59375 -25.921875 "/></g></g></g><g fill="#000000" fill-opacity="1"><g transform="translate(175.37116, 269.239859)"><g><path d="M 5.59375 0.359375 C 4.707031 0.359375 4.03125 0.117188 3.5625 -0.359375 C 3.09375 -0.847656 2.859375 -1.550781 2.859375 -2.46875 L 2.859375 -19.09375 C 2.859375 -20 3.09375 -20.6875 3.5625 -21.15625 C 4.03125 -21.632812 4.691406 -21.875 5.546875 -21.875 C 6.390625 -21.875 7.046875 -21.632812 7.515625 -21.15625 C 7.992188 -20.6875 8.234375 -20 8.234375 -19.09375 L 8.234375 -16.109375 L 7.75 -17.203125 C 8.394531 -18.753906 9.394531 -19.929688 10.75 -20.734375 C 12.113281 -21.546875 13.664062 -21.953125 15.40625 -21.953125 C 17.132812 -21.953125 18.554688 -21.628906 19.671875 -20.984375 C 20.785156 -20.335938 21.617188 -19.363281 22.171875 -18.0625 C 22.734375 -16.757812 23.015625 -15.109375 23.015625 -13.109375 L 23.015625 -2.46875 C 23.015625 -1.550781 22.78125 -0.847656 22.3125 -0.359375 C 21.84375 0.117188 21.164062 0.359375 20.28125 0.359375 C 19.40625 0.359375 18.722656 0.117188 18.234375 -0.359375 C 17.753906 -0.847656 17.515625 -1.550781 17.515625 -2.46875 L 17.515625 -12.84375 C 17.515625 -14.519531 17.195312 -15.738281 16.5625 -16.5 C 15.9375 -17.257812 14.960938 -17.640625 13.640625 -17.640625 C 12.023438 -17.640625 10.738281 -17.132812 9.78125 -16.125 C 8.832031 -15.113281 8.359375 -13.769531 8.359375 -12.09375 L 8.359375 -2.46875 C 8.359375 -0.582031 7.4375 0.359375 5.59375 0.359375 Z M 5.59375 0.359375 "/></g></g></g><g fill="#000000" fill-opacity="1"><g transform="translate(201.106575, 269.239859)"><g><path d="M 12.71875 0.4375 C 10.8125 0.4375 9.21875 0.113281 7.9375 -0.53125 C 6.664062 -1.175781 5.722656 -2.117188 5.109375 -3.359375 C 4.492188 -4.609375 4.1875 -6.160156 4.1875 -8.015625 L 4.1875 -17.375 L 1.890625 -17.375 C 1.191406 -17.375 0.648438 -17.554688 0.265625 -17.921875 C -0.117188 -18.296875 -0.3125 -18.804688 -0.3125 -19.453125 C -0.3125 -20.117188 -0.117188 -20.628906 0.265625 -20.984375 C 0.648438 -21.335938 1.191406 -21.515625 1.890625 -21.515625 L 4.1875 -21.515625 L 4.1875 -25.515625 C 4.1875 -26.429688 4.425781 -27.125 4.90625 -27.59375 C 5.382812 -28.0625 6.066406 -28.296875 6.953125 -28.296875 C 7.828125 -28.296875 8.5 -28.0625 8.96875 -27.59375 C 9.445312 -27.125 9.6875 -26.429688 9.6875 -25.515625 L 9.6875 -21.515625 L 14.34375 -21.515625 C 15.050781 -21.515625 15.59375 -21.335938 15.96875 -20.984375 C 16.351562 -20.628906 16.546875 -20.117188 16.546875 -19.453125 C 16.546875 -18.804688 16.351562 -18.296875 15.96875 -17.921875 C 15.59375 -17.554688 15.050781 -17.375 14.34375 -17.375 L 9.6875 -17.375 L 9.6875 -8.3125 C 9.6875 -6.90625 9.992188 -5.847656 10.609375 -5.140625 C 11.222656 -4.441406 12.21875 -4.09375 13.59375 -4.09375 C 14.09375 -4.09375 14.53125 -4.132812 14.90625 -4.21875 C 15.289062 -4.3125 15.628906 -4.375 15.921875 -4.40625 C 16.273438 -4.425781 16.566406 -4.3125 16.796875 -4.0625 C 17.035156 -3.820312 17.15625 -3.316406 17.15625 -2.546875 C 17.15625 -1.960938 17.0625 -1.441406 16.875 -0.984375 C 16.6875 -0.535156 16.34375 -0.222656 15.84375 -0.046875 C 15.457031 0.0664062 14.957031 0.175781 14.34375 0.28125 C 13.726562 0.382812 13.1875 0.4375 12.71875 0.4375 Z M 12.71875 0.4375 "/></g></g></g><g fill="#ff9f43" fill-opacity="1"><g transform="translate(218.00564, 269.239859)"><g><path d="M 4.4375 0.359375 C 3.707031 0.359375 3.109375 0.160156 2.640625 -0.234375 C 2.171875 -0.640625 1.898438 -1.140625 1.828125 -1.734375 C 1.753906 -2.335938 1.953125 -2.945312 2.421875 -3.5625 L 12.5 -16.984375 L 12.5 -14.5625 L 2.90625 -27.40625 C 2.4375 -28.050781 2.226562 -28.675781 2.28125 -29.28125 C 2.34375 -29.882812 2.609375 -30.382812 3.078125 -30.78125 C 3.546875 -31.175781 4.132812 -31.375 4.84375 -31.375 C 5.425781 -31.375 5.941406 -31.234375 6.390625 -30.953125 C 6.847656 -30.671875 7.3125 -30.207031 7.78125 -29.5625 L 15.703125 -18.65625 L 13.90625 -18.65625 L 21.78125 -29.5625 C 22.25 -30.207031 22.707031 -30.671875 23.15625 -30.953125 C 23.613281 -31.234375 24.148438 -31.375 24.765625 -31.375 C 25.503906 -31.375 26.109375 -31.179688 26.578125 -30.796875 C 27.046875 -30.421875 27.304688 -29.929688 27.359375 -29.328125 C 27.421875 -28.722656 27.203125 -28.082031 26.703125 -27.40625 L 17.109375 -14.5625 L 17.109375 -16.984375 L 27.140625 -3.5625 C 27.617188 -2.945312 27.828125 -2.335938 27.765625 -1.734375 C 27.703125 -1.140625 27.4375 -0.640625 26.96875 -0.234375 C 26.5 0.160156 25.882812 0.359375 25.125 0.359375 C 24.5625 0.359375 24.050781 0.210938 23.59375 -0.078125 C 23.144531 -0.378906 22.671875 -0.851562 22.171875 -1.5 L 13.8125 -12.9375 L 15.75 -12.9375 L 7.4375 -1.5 C 6.96875 -0.851562 6.5 -0.378906 6.03125 -0.078125 C 5.5625 0.210938 5.03125 0.359375 4.4375 0.359375 Z M 4.4375 0.359375 "/></g></g></g></svg>